<svg xmlns="http://www.w3.org/2000/svg" width="1120" height="1120" viewBox="0 0 1120 1120">
  <defs>
    <style>
      .px * { shape-rendering: crispEdges; }
      .label { fill: #9da3b8; font: 600 18px "JetBrains Mono", Consolas, monospace; letter-spacing: .04em; }
      .title { fill: #f4d06a; font: 900 34px "JetBrains Mono", Consolas, monospace; letter-spacing: .08em; }
      .note { fill: #7f8399; font: 500 16px "JetBrains Mono", Consolas, monospace; letter-spacing: .04em; }
    </style>

    <pattern id="checker" width="96" height="96" patternUnits="userSpaceOnUse">
      <rect width="96" height="96" fill="#282c43"/>
      <path d="M0 24 24 0 48 24 24 48Z" fill="#343852" opacity=".95"/>
      <path d="M48 24 72 0 96 24 72 48Z" fill="#22263b" opacity=".95"/>
      <path d="M0 72 24 48 48 72 24 96Z" fill="#22263b" opacity=".95"/>
      <path d="M48 72 72 48 96 72 72 96Z" fill="#343852" opacity=".95"/>
      <path d="M24 0 48 24 24 48 0 24Z" fill="#2e334c" opacity=".45"/>
      <path d="M72 48 96 72 72 96 48 72Z" fill="#2e334c" opacity=".45"/>
    </pattern>

    <symbol id="cup_ramen_s" viewBox="0 0 32 32" class="px">
      <rect x="7" y="24" width="16" height="3" fill="#111323" opacity=".45"/>
      <rect x="9" y="9" width="15" height="3" fill="#10131d"/>
      <rect x="8" y="11" width="18" height="3" fill="#10131d"/>
      <rect x="8" y="13" width="18" height="8" fill="#10131d"/>
      <rect x="10" y="8" width="13" height="2" fill="#ffd45a"/>
      <rect x="8" y="10" width="17" height="2" fill="#ffb93d"/>
      <rect x="9" y="12" width="15" height="1" fill="#fff085"/>
      <rect x="9" y="14" width="15" height="6" fill="#e83e2f"/>
      <rect x="11" y="15" width="12" height="2" fill="#ff6b35"/>
      <rect x="10" y="20" width="13" height="2" fill="#8f1f1e"/>
      <rect x="12" y="22" width="9" height="2" fill="#421619"/>
      <rect x="13" y="10" width="2" height="1" fill="#6a3a1d"/>
      <rect x="18" y="9" width="2" height="1" fill="#6a3a1d"/>
      <rect x="23" y="7" width="4" height="1" fill="#fff1a6"/>
    </symbol>

    <symbol id="soda_s" viewBox="0 0 32 32" class="px">
      <rect x="10" y="25" width="12" height="3" fill="#111323" opacity=".45"/>
      <rect x="11" y="5" width="11" height="20" fill="#10131d"/>
      <rect x="13" y="3" width="7" height="3" fill="#10131d"/>
      <rect x="13" y="4" width="6" height="2" fill="#dfe6ec"/>
      <rect x="12" y="7" width="9" height="17" fill="#1b59ad"/>
      <rect x="14" y="8" width="6" height="15" fill="#2e7be0"/>
      <rect x="14" y="11" width="5" height="3" fill="#eefaff"/>
      <rect x="14" y="17" width="5" height="2" fill="#eefaff"/>
      <rect x="19" y="8" width="2" height="13" fill="#7bc3ff"/>
      <rect x="12" y="23" width="9" height="2" fill="#103163"/>
      <rect x="22" y="7" width="1" height="1" fill="#bdf2ff"/>
      <rect x="24" y="10" width="1" height="1" fill="#bdf2ff"/>
    </symbol>

    <symbol id="coffee_s" viewBox="0 0 32 32" class="px">
      <rect x="8" y="25" width="17" height="3" fill="#111323" opacity=".45"/>
      <rect x="8" y="12" width="15" height="11" fill="#10131d"/>
      <rect x="22" y="15" width="5" height="7" fill="#10131d"/>
      <rect x="10" y="11" width="12" height="2" fill="#5d321e"/>
      <rect x="10" y="13" width="11" height="9" fill="#915c39"/>
      <rect x="12" y="14" width="8" height="2" fill="#c28b5c"/>
      <rect x="21" y="16" width="4" height="2" fill="#5d321e"/>
      <rect x="24" y="18" width="2" height="3" fill="#5d321e"/>
      <rect x="21" y="21" width="4" height="2" fill="#5d321e"/>
      <rect x="10" y="22" width="12" height="2" fill="#f4ead8"/>
      <rect x="9" y="24" width="15" height="2" fill="#a69a89"/>
      <rect x="13" y="4" width="1" height="4" fill="#c0b8a9"/>
      <rect x="18" y="3" width="1" height="5" fill="#c0b8a9"/>
    </symbol>

    <symbol id="patch_s" viewBox="0 0 32 32" class="px">
      <rect x="6" y="22" width="20" height="3" fill="#111323" opacity=".45"/>
      <rect x="5" y="10" width="22" height="13" fill="#10131d"/>
      <rect x="7" y="11" width="18" height="11" fill="#c38174"/>
      <rect x="9" y="13" width="14" height="7" fill="#ffe6d8"/>
      <rect x="14" y="13" width="4" height="7" fill="#df4451"/>
      <rect x="12" y="15" width="8" height="3" fill="#df4451"/>
      <rect x="8" y="12" width="16" height="1" fill="#fff2e8"/>
      <rect x="9" y="20" width="14" height="1" fill="#9d5a55"/>
      <rect x="10" y="14" width="1" height="1" fill="#b8756e"/>
      <rect x="22" y="18" width="1" height="1" fill="#b8756e"/>
    </symbol>

    <symbol id="mint_s" viewBox="0 0 32 32" class="px">
      <rect x="8" y="24" width="16" height="3" fill="#111323" opacity=".45"/>
      <rect x="14" y="7" width="4" height="17" fill="#10131d"/>
      <rect x="15" y="8" width="2" height="15" fill="#2e7b65"/>
      <rect x="7" y="10" width="8" height="4" fill="#10131d"/>
      <rect x="5" y="13" width="10" height="6" fill="#10131d"/>
      <rect x="8" y="11" width="7" height="3" fill="#6fd6a9"/>
      <rect x="6" y="14" width="9" height="4" fill="#55b990"/>
      <rect x="17" y="10" width="8" height="4" fill="#10131d"/>
      <rect x="17" y="13" width="10" height="6" fill="#10131d"/>
      <rect x="17" y="11" width="7" height="3" fill="#6fd6a9"/>
      <rect x="17" y="14" width="9" height="4" fill="#55b990"/>
      <rect x="19" y="14" width="3" height="2" fill="#e8fff2"/>
      <rect x="24" y="7" width="2" height="2" fill="#d5ffe9"/>
    </symbol>

    <symbol id="gel_s" viewBox="0 0 32 32" class="px">
      <rect x="8" y="26" width="17" height="3" fill="#111323" opacity=".45"/>
      <rect x="9" y="7" width="16" height="20" fill="#10131d"/>
      <rect x="13" y="4" width="8" height="4" fill="#10131d"/>
      <rect x="14" y="5" width="6" height="2" fill="#e8ddbd"/>
      <rect x="10" y="9" width="13" height="16" fill="#d09f44"/>
      <rect x="12" y="11" width="10" height="4" fill="#f4d263"/>
      <rect x="12" y="17" width="10" height="5" fill="#2d8d50"/>
      <rect x="13" y="18" width="3" height="2" fill="#fff7c4"/>
      <rect x="19" y="19" width="2" height="1" fill="#fff7c4"/>
      <rect x="10" y="24" width="13" height="2" fill="#7c5a29"/>
      <rect x="11" y="10" width="2" height="13" fill="#ffe28b"/>
    </symbol>

    <symbol id="energy_s" viewBox="0 0 32 32" class="px">
      <rect x="6" y="22" width="20" height="3" fill="#111323" opacity=".45"/>
      <rect x="5" y="12" width="22" height="10" fill="#10131d"/>
      <rect x="7" y="13" width="18" height="8" fill="#d2a84a"/>
      <rect x="4" y="15" width="3" height="5" fill="#b98537"/>
      <rect x="25" y="15" width="3" height="5" fill="#b98537"/>
      <rect x="9" y="15" width="14" height="3" fill="#57351d"/>
      <rect x="11" y="16" width="2" height="1" fill="#fff0ad"/>
      <rect x="16" y="16" width="2" height="1" fill="#fff0ad"/>
      <rect x="21" y="16" width="1" height="1" fill="#fff0ad"/>
      <rect x="8" y="20" width="16" height="2" fill="#7a5624"/>
    </symbol>

    <symbol id="hotpack_s" viewBox="0 0 32 32" class="px">
      <rect x="10" y="26" width="13" height="3" fill="#111323" opacity=".45"/>
      <rect x="10" y="6" width="14" height="21" fill="#10131d"/>
      <rect x="12" y="8" width="10" height="17" fill="#d44f3c"/>
      <rect x="13" y="10" width="8" height="13" fill="#f17a57"/>
      <rect x="15" y="12" width="2" height="2" fill="#fff4bf"/>
      <rect x="19" y="13" width="1" height="2" fill="#fff4bf"/>
      <rect x="17" y="17" width="2" height="2" fill="#fff4bf"/>
      <rect x="14" y="22" width="8" height="2" fill="#63201b"/>
      <rect x="13" y="9" width="3" height="13" fill="#ffb08d"/>
    </symbol>

    <symbol id="chocolate_s" viewBox="0 0 32 32" class="px">
      <rect x="8" y="25" width="17" height="3" fill="#111323" opacity=".45"/>
      <rect x="8" y="7" width="18" height="18" fill="#10131d"/>
      <rect x="10" y="9" width="14" height="14" fill="#5a331e"/>
      <rect x="11" y="10" width="4" height="4" fill="#9a6339"/>
      <rect x="16" y="10" width="4" height="4" fill="#9a6339"/>
      <rect x="21" y="10" width="2" height="4" fill="#9a6339"/>
      <rect x="11" y="15" width="4" height="4" fill="#7e4d2d"/>
      <rect x="16" y="15" width="4" height="4" fill="#7e4d2d"/>
      <rect x="21" y="15" width="2" height="4" fill="#7e4d2d"/>
      <rect x="10" y="9" width="14" height="1" fill="#c3895b"/>
    </symbol>

    <symbol id="beer_s" viewBox="0 0 32 32" class="px">
      <rect x="6" y="25" width="20" height="3" fill="#111323" opacity=".45"/>
      <rect x="6" y="7" width="8" height="9" fill="#10131d"/>
      <rect x="18" y="7" width="8" height="9" fill="#10131d"/>
      <rect x="6" y="17" width="8" height="9" fill="#10131d"/>
      <rect x="18" y="17" width="8" height="9" fill="#10131d"/>
      <rect x="8" y="9" width="4" height="6" fill="#c9973a"/>
      <rect x="20" y="9" width="4" height="6" fill="#c9973a"/>
      <rect x="8" y="19" width="4" height="6" fill="#c9973a"/>
      <rect x="20" y="19" width="4" height="6" fill="#c9973a"/>
      <rect x="14" y="15" width="4" height="5" fill="#22170f"/>
      <rect x="9" y="10" width="1" height="2" fill="#fff1a5"/>
      <rect x="21" y="20" width="2" height="2" fill="#fff1a5"/>
    </symbol>

    <symbol id="cig1_s" viewBox="0 0 32 32" class="px">
      <rect x="6" y="21" width="20" height="3" fill="#111323" opacity=".45"/>
      <rect x="5" y="16" width="22" height="5" fill="#10131d"/>
      <rect x="7" y="17" width="15" height="3" fill="#f1eadb"/>
      <rect x="22" y="17" width="4" height="3" fill="#a8884b"/>
      <rect x="5" y="17" width="3" height="3" fill="#ff5a28"/>
      <rect x="10" y="8" width="2" height="4" fill="#a7a7a7"/>
      <rect x="14" y="5" width="2" height="5" fill="#a7a7a7"/>
      <rect x="18" y="10" width="1" height="3" fill="#a7a7a7"/>
    </symbol>

    <symbol id="cig5_s" viewBox="0 0 32 32" class="px">
      <rect x="9" y="26" width="16" height="3" fill="#111323" opacity=".45"/>
      <rect x="9" y="8" width="16" height="18" fill="#10131d"/>
      <rect x="11" y="10" width="12" height="14" fill="#5a3a31"/>
      <rect x="12" y="12" width="10" height="4" fill="#c79b49"/>
      <rect x="12" y="5" width="2" height="7" fill="#f1eadb"/>
      <rect x="16" y="4" width="2" height="8" fill="#f1eadb"/>
      <rect x="20" y="5" width="2" height="7" fill="#f1eadb"/>
      <rect x="12" y="5" width="2" height="1" fill="#a8884b"/>
      <rect x="16" y="4" width="2" height="1" fill="#a8884b"/>
      <rect x="20" y="5" width="2" height="1" fill="#a8884b"/>
      <rect x="11" y="23" width="12" height="2" fill="#2b1b18"/>
    </symbol>

    <symbol id="liquor_s" viewBox="0 0 32 32" class="px">
      <rect x="10" y="26" width="14" height="3" fill="#111323" opacity=".45"/>
      <rect x="13" y="5" width="8" height="5" fill="#10131d"/>
      <rect x="11" y="10" width="12" height="13" fill="#10131d"/>
      <rect x="14" y="5" width="6" height="3" fill="#d8d8d8"/>
      <rect x="13" y="9" width="8" height="3" fill="#7a1418"/>
      <rect x="12" y="12" width="10" height="10" fill="#ac2026"/>
      <rect x="14" y="22" width="6" height="2" fill="#6c1417"/>
      <rect x="16" y="24" width="3" height="3" fill="#d8d8d8"/>
      <rect x="12" y="27" width="10" height="2" fill="#d8d8d8"/>
      <rect x="14" y="13" width="2" height="7" fill="#fff1f1"/>
    </symbol>

    <symbol id="ice_s" viewBox="0 0 32 32" class="px">
      <rect x="10" y="25" width="13" height="3" fill="#111323" opacity=".45"/>
      <rect x="10" y="5" width="14" height="11" fill="#10131d"/>
      <rect x="12" y="6" width="10" height="3" fill="#ffd7ea"/>
      <rect x="10" y="9" width="14" height="6" fill="#ffc0dc"/>
      <rect x="12" y="15" width="10" height="3" fill="#dcb43c"/>
      <rect x="13" y="18" width="8" height="4" fill="#be8b38"/>
      <rect x="14" y="22" width="6" height="4" fill="#8d6329"/>
      <rect x="15" y="26" width="4" height="2" fill="#674a1f"/>
      <rect x="14" y="10" width="2" height="2" fill="#fff4f8"/>
      <rect x="19" y="8" width="2" height="2" fill="#fff4f8"/>
    </symbol>

    <symbol id="core_s" viewBox="0 0 32 32" class="px">
      <rect x="10" y="25" width="13" height="3" fill="#111323" opacity=".45"/>
      <rect x="15" y="4" width="3" height="2" fill="#fff7ff"/>
      <rect x="12" y="6" width="9" height="4" fill="#10131d"/>
      <rect x="10" y="10" width="13" height="5" fill="#10131d"/>
      <rect x="8" y="14" width="17" height="4" fill="#10131d"/>
      <rect x="10" y="18" width="13" height="4" fill="#10131d"/>
      <rect x="14" y="7" width="6" height="3" fill="#b48cff"/>
      <rect x="12" y="10" width="9" height="4" fill="#9b6cdc"/>
      <rect x="10" y="14" width="13" height="4" fill="#7844c5"/>
      <rect x="12" y="18" width="9" height="4" fill="#51258f"/>
      <rect x="15" y="22" width="3" height="3" fill="#32155d"/>
      <rect x="8" y="7" width="2" height="2" fill="#fff1a6"/>
      <rect x="24" y="19" width="2" height="2" fill="#fff1a6"/>
    </symbol>

    <symbol id="blood_s" viewBox="0 0 32 32" class="px">
      <rect x="10" y="27" width="13" height="3" fill="#111323" opacity=".45"/>
      <rect x="11" y="5" width="13" height="22" fill="#10131d"/>
      <rect x="14" y="3" width="8" height="3" fill="#10131d"/>
      <rect x="15" y="4" width="6" height="2" fill="#8b8b8b"/>
      <rect x="13" y="7" width="9" height="18" fill="#dfe2e5"/>
      <rect x="14" y="11" width="7" height="10" fill="#b41414"/>
      <rect x="13" y="14" width="9" height="2" fill="#fff"/>
      <rect x="13" y="18" width="9" height="2" fill="#fff"/>
      <rect x="17" y="14" width="2" height="6" fill="#b41414"/>
      <rect x="15" y="16" width="6" height="2" fill="#b41414"/>
      <rect x="14" y="8" width="2" height="15" fill="#fff" opacity=".42"/>
      <rect x="12" y="25" width="11" height="2" fill="#292b30"/>
    </symbol>
  </defs>

  <rect width="1120" height="1120" fill="url(#checker)"/>
  <rect x="32" y="30" width="1056" height="1060" fill="none" stroke="rgba(246,210,105,.18)" stroke-width="2"/>
  <text x="54" y="78" class="title">STAR MART SPRITE SHEET V3</text>
  <text x="56" y="105" class="note">small object sprites / black outline / diagonal light / reference-style checker preview</text>

  <g transform="translate(104 150)">
    <g transform="translate(0 0)"><use href="#cup_ramen_s" width="120" height="120"/><text class="label" x="-2" y="142">cup_ramen</text></g>
    <g transform="translate(220 0)"><use href="#soda_s" width="120" height="120"/><text class="label" x="20" y="142">soda</text></g>
    <g transform="translate(440 0)"><use href="#coffee_s" width="120" height="120"/><text class="label" x="8" y="142">coffee</text></g>
    <g transform="translate(660 0)"><use href="#patch_s" width="120" height="120"/><text class="label" x="-24" y="142">first_aid_patch</text></g>

    <g transform="translate(0 205)"><use href="#mint_s" width="120" height="120"/><text class="label" x="-4" y="142">calm_mint</text></g>
    <g transform="translate(220 205)"><use href="#gel_s" width="120" height="120"/><text class="label" x="-48" y="142">field_nutrition_gel</text></g>
    <g transform="translate(440 205)"><use href="#energy_s" width="120" height="120"/><text class="label" x="-8" y="142">energy_bar</text></g>
    <g transform="translate(660 205)"><use href="#hotpack_s" width="120" height="120"/><text class="label" x="4" y="142">hotpack</text></g>

    <g transform="translate(0 410)"><use href="#chocolate_s" width="120" height="120"/><text class="label" x="-10" y="142">chocolate</text></g>
    <g transform="translate(220 410)"><use href="#beer_s" width="120" height="120"/><text class="label" x="-6" y="142">beer_pack</text></g>
    <g transform="translate(440 410)"><use href="#cig1_s" width="120" height="120"/><text class="label" x="18" y="142">cig_1</text></g>
    <g transform="translate(660 410)"><use href="#cig5_s" width="120" height="120"/><text class="label" x="18" y="142">cig_5</text></g>

    <g transform="translate(0 615)"><use href="#liquor_s" width="120" height="120"/><text class="label" x="2" y="142">liquor</text></g>
    <g transform="translate(220 615)"><use href="#ice_s" width="120" height="120"/><text class="label" x="-4" y="142">icecream</text></g>
    <g transform="translate(440 615)"><use href="#core_s" width="120" height="120"/><text class="label" x="-8" y="142">force_core</text></g>
    <g transform="translate(660 615)"><use href="#blood_s" width="120" height="120"/><text class="label" x="0" y="142">vf_blood</text></g>
  </g>
</svg>
