<svg xmlns="http://www.w3.org/2000/svg" width="256" height="256" viewBox="0 0 256 256" role="img" aria-label="Towaski flame weapon license placeholder">
  <rect width="256" height="256" fill="#20140f"/>
  <rect x="34" y="28" width="188" height="200" rx="10" fill="#fff3e0"/>
  <rect x="50" y="48" width="156" height="22" fill="#3f2317"/>
  <path d="M114 166c-18-14-20-36-4-58 7 17 18 21 18 39 13-10 15-24 9-43 27 23 35 50 15 68-12 11-28 11-38-6z" fill="#e11d48"/>
  <path d="M126 172c-10-9-11-23-2-37 5 10 11 14 11 25 8-7 8-15 5-26 16 15 20 32 8 43-7 6-16 6-22-5z" fill="#f59e0b"/>
  <circle cx="178" cy="58" r="20" fill="#dc2626"/>
  <path d="M168 58l7 7 14-16" fill="none" stroke="#fff7ed" stroke-width="5" stroke-linecap="round" stroke-linejoin="round"/>
  <text x="128" y="102" text-anchor="middle" font-family="Arial, sans-serif" font-size="18" font-weight="700" fill="#20140f">FLAME</text>
  <text x="128" y="204" text-anchor="middle" font-family="Arial, sans-serif" font-size="14" fill="#20140f">TOWASKI LICENSE</text>
</svg>
