<svg xmlns="http://www.w3.org/2000/svg" viewBox="0 0 24 24" fill="none" stroke="currentColor" stroke-width="1.5" stroke-linecap="round" stroke-linejoin="round" width="24" height="24" aria-hidden="true">
  <path d="M12 6.1C10.3 4.8 7.9 4.2 4 4.2v13.4c3.9 0 6.3.6 8 1.9 1.7-1.3 4.1-1.9 8-1.9V4.2c-3.9 0-6.3.6-8 1.9z"/>
  <path d="M12 6.1v13.4"/>
  <path d="M6.6 8.3c1.3.1 2.4.4 3.4.8"/>
  <path d="M6.6 11.2c1.3.1 2.4.4 3.4.8"/>
  <path d="M14 9.1c1-.4 2.1-.7 3.4-.8"/>
  <path d="M14 12c1-.4 2.1-.7 3.4-.8"/>
</svg>
