<svg width="24" height="24" viewBox="0 0 24 24" fill="none" xmlns="http://www.w3.org/2000/svg" aria-hidden="true">
  <path d="M10.875 16.125C10.875 15.5037 11.3787 15 12 15C12.6213 15 13.125 15.5037 13.125 16.125C13.125 16.7463 12.6213 17.25 12 17.25C11.3787 17.25 10.875 16.7463 10.875 16.125Z" fill="#EB342A"/>
  <path d="M12.75 6.75H11.25V12.75H12.75V6.75Z" fill="#EB342A"/>
  <path fill-rule="evenodd" clip-rule="evenodd" d="M1.5 12C1.5 6.201 6.201 1.5 12 1.5C17.799 1.5 22.5 6.201 22.5 12C22.5 17.799 17.799 22.5 12 22.5C6.201 22.5 1.5 17.799 1.5 12ZM12 3C7.02943 3 3 7.02943 3 12C3 16.9706 7.02943 21 12 21C16.9706 21 21 16.9706 21 12C21 7.02943 16.9706 3 12 3Z" fill="#EB342A"/>
</svg>
