<svg width="24" height="24" viewBox="0 0 24 24" fill="none" xmlns="http://www.w3.org/2000/svg" aria-hidden="true">
  <path d="M12 9C12.6213 9 13.125 8.49632 13.125 7.875C13.125 7.25368 12.6213 6.75 12 6.75C11.3787 6.75 10.875 7.25368 10.875 7.875C10.875 8.49632 11.3787 9 12 9Z" fill="#1978F0"/>
  <path d="M12.75 10.5V15.75H14.25V17.25H9.75V15.75H11.25V12H10.5V10.5H12.75Z" fill="#1978F0"/>
  <path fill-rule="evenodd" clip-rule="evenodd" d="M12 1.5C6.201 1.5 1.5 6.201 1.5 12C1.5 17.799 6.201 22.5 12 22.5C17.799 22.5 22.5 17.799 22.5 12C22.5 6.201 17.799 1.5 12 1.5ZM3 12C3 7.02943 7.02943 3 12 3C16.9706 3 21 7.02943 21 12C21 16.9706 16.9706 21 12 21C7.02943 21 3 16.9706 3 12Z" fill="#1978F0"/>
</svg>
