<svg xmlns="http://www.w3.org/2000/svg" viewBox="0 0 24 24" fill="none" stroke="currentColor" stroke-width="1.5" stroke-linecap="round" stroke-linejoin="round" width="24" height="24" aria-hidden="true">
  <path d="M4 5.2c2.7 1 5.3 1 8 0v5.6c0 3.5-1.7 5.9-4 5.9s-4-2.4-4-5.9z"/>
  <circle cx="6.3" cy="8.9" r="0.55" fill="currentColor" stroke="none"/>
  <circle cx="9.7" cy="8.9" r="0.55" fill="currentColor" stroke="none"/>
  <path d="M6.1 11.9c.6.9 1.3 1.3 1.9 1.3s1.3-.4 1.9-1.3"/>
  <path d="M13.6 3.4c2.2.8 4.4.8 6.4 0v5.4c0 3.4-1.4 5.6-3.2 5.6s-3.2-2.2-3.2-5.6z"/>
  <circle cx="15.5" cy="7" r="0.55" fill="currentColor" stroke="none"/>
  <circle cx="18.1" cy="7" r="0.55" fill="currentColor" stroke="none"/>
  <path d="M15.4 11.2c.4-.7 1-1 1.7-1s1.3.3 1.7 1"/>
</svg>
