<svg xmlns="http://www.w3.org/2000/svg" viewBox="0 0 512 512" fill="currentColor" width="24" height="24" aria-hidden="true">
  <path fill-rule="evenodd" d="M77 59 L73 63 L71 68 L71 500 L74 506 L82 511 L429 511 L435 508 L440 500 L440 68 L438 63 L434 59 L429 57 L369 57 L369 80 L363 95 L351 107 L337 113 L182 114 L165 110 L156 104 L148 95 L142 80 L142 57 L82 57 Z M299 269 L317 268 L333 270 L350 275 L370 286 L387 301 L399 317 L406 331 L411 348 L413 364 L411 388 L405 407 L394 426 L375 446 L365 453 L349 461 L332 466 L301 467 L290 465 L275 460 L258 451 L250 445 L230 423 L221 406 L215 386 L215 349 L223 325 L232 310 L243 297 L264 281 L279 274 Z M250 335 L243 356 L242 372 L244 385 L247 394 L255 409 L268 423 L275 428 L287 434 L301 438 L326 438 L342 433 L357 424 L374 405 L379 395 L382 382 L307 381 L254 329 Z M274 309 L320 354 L382 354 L381 346 L377 336 L366 320 L356 311 L338 301 L321 297 L306 297 L289 301 Z M99 280 L101 275 L105 271 L112 268 L200 268 L206 270 L211 275 L213 280 L213 286 L206 295 L201 297 L111 297 L106 295 L101 290 Z M99 223 L105 214 L114 211 L198 211 L207 214 L211 218 L213 223 L213 229 L211 233 L205 239 L202 240 L110 240 L101 233 Z M99 167 L103 159 L109 155 L260 155 L265 158 L268 162 L270 171 L266 179 L260 183 L109 183 L104 180 L101 176 Z M171 36 L170 73 L174 82 L180 85 L331 85 L337 82 L341 74 L341 40 L339 34 L335 30 L329 28 L280 28 L271 21 L268 7 L259 0 L252 0 L248 2 L242 9 L240 21 L231 28 L182 28 L176 30 Z"/>
</svg>
