<svg xmlns="http://www.w3.org/2000/svg" viewBox="0 0 24 24" fill="none" width="24" height="24" aria-hidden="true">
  <g transform="scale(0.04687500)" fill="currentColor" stroke="none">
    <path d="M0 0 C1 1 1 1 6 5 C40 41 40 41 40 56 C41 56 41 56 46 54 C49 54 51 53 54 52 C56 51 59 51 61 50 C65 49 69 48 73 47 C71 57 69 66 67 76 C66 79 65 83 64 86 C63 90 62 93 61 97 C60 101 59 104 58 108 C54 124 50 140 46 156 C37 151 29 143 21 136 C17 133 14 130 10 127 C5 123 1 119 -4 115 C-8 112 -11 109 -15 106 C-21 101 -26 97 -32 92 C-34 90 -36 89 -38 87 C-42 84 -45 81 -49 78 C-45 74 -38 74 -32 73 C-30 72 -27 72 -24 71 C-22 71 -20 70 -18 70 C-39 27 -89 6 -134 3 C-199 0 -249 38 -291 84 C-297 90 -303 96 -309 102 C-314 107 -318 111 -322 116 C-325 119 -327 121 -330 124 C-332 127 -335 129 -337 132 C-339 134 -342 136 -344 138 C-346 71 -306 10 -252 -26 C-171 -76 -69 -67 0 0 Z " transform="translate(395,90)" />
    <path d="M0 0 C8 7 16 15 23 22 C25 24 26 25 28 27 C31 30 35 34 38 37 C43 42 48 47 53 52 C57 55 60 59 63 62 C65 63 66 65 68 66 C73 72 79 77 83 84 C56 111 30 137 2 165 C-6 161 -11 155 -17 149 C-17 148 -17 148 -17 147 C-18 146 -20 146 -21 145 C-25 141 -25 141 -25 139 C-26 138 -28 138 -29 137 C-33 133 -37 129 -41 125 C-43 123 -46 120 -48 118 C-51 115 -53 113 -56 110 C-58 108 -61 105 -63 103 C-70 96 -76 90 -82 84 C-78 75 -69 69 -62 62 C-61 60 -59 59 -57 57 C-51 51 -46 45 -40 40 C-36 36 -32 32 -28 28 C-19 19 -9 9 0 0 Z " transform="translate(253,179)" />
    <path d="M0 0 C1 0 1 0 2 0 C2 1 2 1 2 2 C3 3 5 3 6 4 C9 7 13 10 16 13 C20 16 23 19 27 22 C32 26 36 30 41 34 C47 39 53 44 60 50 C65 54 71 59 76 64 C80 67 83 70 87 73 C89 75 91 76 93 78 C91 82 83 82 79 83 C76 84 74 84 71 85 C65 86 65 86 61 86 C90 134 139 156 193 155 C237 154 277 131 307 101 C312 96 312 96 314 96 C315 95 315 93 316 92 C320 88 324 84 328 80 C334 74 341 67 347 60 C351 56 354 53 358 49 C359 48 359 48 365 41 C368 38 370 36 373 33 C374 32 374 32 380 25 C382 23 385 21 387 19 C387 92 343 156 281 193 C216 227 146 225 82 189 C76 184 69 180 63 175 C62 174 62 174 58 171 C35 151 17 129 3 102 C-3 104 -10 105 -16 107 C-22 109 -22 109 -26 109 C-19 72 -9 36 0 0 Z " transform="translate(69,262)" />
  </g>
</svg>
