<svg xmlns="http://www.w3.org/2000/svg" viewBox="0 0 24 24" fill="none" stroke="currentColor" stroke-width="1.5" stroke-linecap="round" stroke-linejoin="round"><path d="M15 8.7C15.2 6 13.5 4.3 11.6 4.3 9.6 4.3 8.2 6.1 8.5 8.6L8.8 10.6"/><path d="M13.4 5.6L15.1 1.9L13.1 3.9L11.5 2.1L10.1 4.5L7.8 3.2L9.1 6.6z"/><path d="M15 8.7c.7.3 1 .9.7 1.3-.2.2-.2.4 0 .7.3.4.1.9-.4 1.1-.4.2-.9.2-1.4.1"/><path d="M8.8 10.6c-1.7.9-2.7 2.5-3 4.6"/><path d="M9.8 11.6c-1.1.6-1.9 1.6-2.3 3.1"/><path d="M6.8 20.5c.1-3.9 1.8-6.3 4.4-7.3"/><path d="M5.1 5.1L3.3 4.5L2.7 2.7L4.5 3.3Z"/><path d="M4.6 6.4l1.8-1.8"/><path d="M5.9 5.9L7.7 7.7"/><path d="M10.6 10.6L13.2 13.2"/><circle cx="17" cy="15.2" r="4.4"/><path d="M17.7 12.6Q13.6 15.2 17.7 17.8Q16.4 15.2 17.7 12.6z"/></svg>
