<svg xmlns="http://www.w3.org/2000/svg" viewBox="0 0 24 24" fill="none" stroke="currentColor" stroke-width="1.5" stroke-linecap="round" stroke-linejoin="round"><path d="M4.5 21.5V3.4"/><circle cx="4.5" cy="2.4" r="0.7" fill="currentColor" stroke="none"/><path d="M4.5 4.3c2.5 1 4.9 1 7.4.2 2.4-.8 4.9-.8 7.6.3v9.3c-2.7-1.1-5.2-1.1-7.6-.3-2.5.8-4.9.8-7.4-.2z"/><path d="M11.9 4.5v5.1"/><path d="M11.9 7.2c2.4-.8 4.9-.8 7.6.3"/><path d="M4.5 9.4c2.5 1 4.9 1 7.4.2 2.4-.8 4.9-.8 7.6.3"/><path d="M4.5 11.9c2.5 1 4.9 1 7.4.2 2.4-.8 4.9-.8 7.6.3"/><circle cx="6.4" cy="6.1" r="0.5" fill="currentColor" stroke="none"/><circle cx="8.6" cy="6.6" r="0.5" fill="currentColor" stroke="none"/><circle cx="6.4" cy="7.9" r="0.5" fill="currentColor" stroke="none"/><circle cx="8.6" cy="8.4" r="0.5" fill="currentColor" stroke="none"/></svg>
