<svg xmlns="http://www.w3.org/2000/svg" viewBox="0 0 24 24" fill="none" stroke="currentColor" stroke-width="1.5" stroke-linecap="round" stroke-linejoin="round"><path d="M5.8 9.2C6.1 5.8 8.7 3.4 12 3.4s5.9 2.4 6.2 5.8"/><path d="M12 3.4V2.3"/><path d="M5.8 9.2c-1.2 0-2.3.5-3.1 1.4 1.1.5 2.2.6 3.3.4"/><path d="M18.2 9.2c1.2 0 2.3.5 3.1 1.4-1.1.5-2.2.6-3.3.4"/><path d="M18.3 10.9c0 .8-.2 1.5-.5 2.1l1.3.4-.7 1.1.5 1c-.6 1-1.6 1.6-2.9 1.7"/><path d="M5.9 11c.2 2.6 1.3 4.6 3.2 5.9"/><circle cx="11.6" cy="17.4" r="3.1"/><path d="M9.3 19.7l-3.2 2.6"/></svg>
